<mxfile host="app.diagrams.net" modified="2024-02-28T04:39:16.196Z" agent="Mozilla/5.0 (Windows NT 10.0; Win64; x64) AppleWebKit/537.36 (KHTML, like Gecko) Chrome/121.0.0.0 Safari/537.36" etag="pvjzKzratNJfrD368o8e" version="23.1.7" type="github" pages="2">
  <diagram name="Page-1" id="0783ab3e-0a74-02c8-0abd-f7b4e66b4bec">
    <mxGraphModel dx="1176" dy="527" grid="1" gridSize="10" guides="1" tooltips="1" connect="1" arrows="1" fold="1" page="1" pageScale="1" pageWidth="850" pageHeight="1100" background="none" math="0" shadow="0">
      <root>
        <mxCell id="0" />
        <mxCell id="1" parent="0" />
        <mxCell id="1c1d494c118603dd-1" value="Level 0" style="swimlane;html=1;childLayout=stackLayout;startSize=20;rounded=0;shadow=0;comic=0;labelBackgroundColor=none;strokeWidth=1;fontFamily=Verdana;fontSize=12;align=center;" parent="1" vertex="1">
          <mxGeometry x="40" y="20" width="750" height="990" as="geometry" />
        </mxCell>
        <mxCell id="1c1d494c118603dd-2" value="Lane 1" style="swimlane;html=1;startSize=20;" parent="1c1d494c118603dd-1" vertex="1">
          <mxGeometry y="20" width="750" height="970" as="geometry" />
        </mxCell>
        <mxCell id="bdTmcdgcummo-CnWld_V-17" value="" style="edgeStyle=none;curved=1;rounded=0;orthogonalLoop=1;jettySize=auto;html=1;fontSize=12;startSize=8;endSize=8;entryX=0.5;entryY=0;entryDx=0;entryDy=0;" edge="1" parent="1c1d494c118603dd-2" source="60571a20871a0731-4" target="bdTmcdgcummo-CnWld_V-4">
          <mxGeometry relative="1" as="geometry" />
        </mxCell>
        <mxCell id="60571a20871a0731-4" value="" style="ellipse;whiteSpace=wrap;html=1;rounded=0;shadow=0;comic=0;labelBackgroundColor=none;strokeWidth=1;fillColor=#000000;fontFamily=Verdana;fontSize=12;align=center;" parent="1c1d494c118603dd-2" vertex="1">
          <mxGeometry x="60" y="40" width="20" height="20" as="geometry" />
        </mxCell>
        <mxCell id="bdTmcdgcummo-CnWld_V-2" style="edgeStyle=none;curved=1;rounded=0;orthogonalLoop=1;jettySize=auto;html=1;exitX=0.75;exitY=0;exitDx=0;exitDy=0;fontSize=12;startSize=8;endSize=8;" edge="1" parent="1c1d494c118603dd-2">
          <mxGeometry relative="1" as="geometry">
            <mxPoint x="100" y="80" as="sourcePoint" />
            <mxPoint x="100" y="80" as="targetPoint" />
          </mxGeometry>
        </mxCell>
        <mxCell id="bdTmcdgcummo-CnWld_V-18" value="" style="edgeStyle=none;curved=1;rounded=0;orthogonalLoop=1;jettySize=auto;html=1;fontSize=12;startSize=8;endSize=8;entryX=0.5;entryY=0;entryDx=0;entryDy=0;" edge="1" parent="1c1d494c118603dd-2" source="bdTmcdgcummo-CnWld_V-4" target="bdTmcdgcummo-CnWld_V-10">
          <mxGeometry relative="1" as="geometry" />
        </mxCell>
        <mxCell id="bdTmcdgcummo-CnWld_V-4" value="Receive&lt;br&gt;Order" style="ellipse;whiteSpace=wrap;html=1;aspect=fixed;" vertex="1" parent="1c1d494c118603dd-2">
          <mxGeometry x="40" y="80" width="60" height="60" as="geometry" />
        </mxCell>
        <mxCell id="bdTmcdgcummo-CnWld_V-19" value="" style="edgeStyle=none;curved=1;rounded=0;orthogonalLoop=1;jettySize=auto;html=1;fontSize=12;startSize=8;endSize=8;entryX=0.5;entryY=0;entryDx=0;entryDy=0;" edge="1" parent="1c1d494c118603dd-2" source="bdTmcdgcummo-CnWld_V-10" target="bdTmcdgcummo-CnWld_V-11">
          <mxGeometry relative="1" as="geometry" />
        </mxCell>
        <mxCell id="bdTmcdgcummo-CnWld_V-10" value="Receive Material" style="ellipse;whiteSpace=wrap;html=1;aspect=fixed;" vertex="1" parent="1c1d494c118603dd-2">
          <mxGeometry x="40" y="170" width="60" height="60" as="geometry" />
        </mxCell>
        <mxCell id="bdTmcdgcummo-CnWld_V-20" value="" style="edgeStyle=none;curved=1;rounded=0;orthogonalLoop=1;jettySize=auto;html=1;fontSize=12;startSize=8;endSize=8;" edge="1" parent="1c1d494c118603dd-2" source="bdTmcdgcummo-CnWld_V-11" target="bdTmcdgcummo-CnWld_V-12">
          <mxGeometry relative="1" as="geometry" />
        </mxCell>
        <mxCell id="bdTmcdgcummo-CnWld_V-11" value="Storage" style="ellipse;whiteSpace=wrap;html=1;aspect=fixed;" vertex="1" parent="1c1d494c118603dd-2">
          <mxGeometry x="40" y="260" width="60" height="60" as="geometry" />
        </mxCell>
        <mxCell id="bdTmcdgcummo-CnWld_V-21" value="" style="edgeStyle=none;curved=1;rounded=0;orthogonalLoop=1;jettySize=auto;html=1;fontSize=12;startSize=8;endSize=8;" edge="1" parent="1c1d494c118603dd-2" source="bdTmcdgcummo-CnWld_V-12" target="bdTmcdgcummo-CnWld_V-13">
          <mxGeometry relative="1" as="geometry" />
        </mxCell>
        <mxCell id="bdTmcdgcummo-CnWld_V-12" value="Supply" style="ellipse;whiteSpace=wrap;html=1;aspect=fixed;" vertex="1" parent="1c1d494c118603dd-2">
          <mxGeometry x="40" y="350" width="60" height="60" as="geometry" />
        </mxCell>
        <mxCell id="bdTmcdgcummo-CnWld_V-22" value="" style="edgeStyle=none;curved=1;rounded=0;orthogonalLoop=1;jettySize=auto;html=1;fontSize=12;startSize=8;endSize=8;" edge="1" parent="1c1d494c118603dd-2" source="bdTmcdgcummo-CnWld_V-13" target="bdTmcdgcummo-CnWld_V-14">
          <mxGeometry relative="1" as="geometry" />
        </mxCell>
        <mxCell id="bdTmcdgcummo-CnWld_V-13" value="Production" style="ellipse;whiteSpace=wrap;html=1;aspect=fixed;" vertex="1" parent="1c1d494c118603dd-2">
          <mxGeometry x="40" y="440" width="60" height="60" as="geometry" />
        </mxCell>
        <mxCell id="bdTmcdgcummo-CnWld_V-14" value="Delivery" style="ellipse;whiteSpace=wrap;html=1;aspect=fixed;" vertex="1" parent="1c1d494c118603dd-2">
          <mxGeometry x="40" y="530" width="60" height="60" as="geometry" />
        </mxCell>
      </root>
    </mxGraphModel>
  </diagram>
  <diagram name="Receive Material" id="gTXkGGSfoHHTIW3ptEjs">
    <mxGraphModel dx="1176" dy="527" grid="1" gridSize="10" guides="1" tooltips="1" connect="1" arrows="1" fold="1" page="1" pageScale="1" pageWidth="850" pageHeight="1100" background="none" math="0" shadow="0">
      <root>
        <mxCell id="_2PXvgAP1VzAHofBElRw-0" />
        <mxCell id="_2PXvgAP1VzAHofBElRw-1" parent="_2PXvgAP1VzAHofBElRw-0" />
        <mxCell id="_2PXvgAP1VzAHofBElRw-2" value="Level 1" style="swimlane;html=1;childLayout=stackLayout;startSize=20;rounded=0;shadow=0;comic=0;labelBackgroundColor=none;strokeWidth=1;fontFamily=Verdana;fontSize=12;align=center;" vertex="1" parent="_2PXvgAP1VzAHofBElRw-1">
          <mxGeometry x="40" y="20" width="750" height="990" as="geometry" />
        </mxCell>
        <mxCell id="_2PXvgAP1VzAHofBElRw-3" value="Lane 1" style="swimlane;html=1;startSize=20;" vertex="1" parent="_2PXvgAP1VzAHofBElRw-2">
          <mxGeometry y="20" width="750" height="970" as="geometry" />
        </mxCell>
        <mxCell id="_2PXvgAP1VzAHofBElRw-5" value="" style="ellipse;whiteSpace=wrap;html=1;rounded=0;shadow=0;comic=0;labelBackgroundColor=none;strokeWidth=1;fillColor=#000000;fontFamily=Verdana;fontSize=12;align=center;" vertex="1" parent="_2PXvgAP1VzAHofBElRw-3">
          <mxGeometry x="60" y="40" width="20" height="20" as="geometry" />
        </mxCell>
        <mxCell id="_2PXvgAP1VzAHofBElRw-6" style="edgeStyle=none;curved=1;rounded=0;orthogonalLoop=1;jettySize=auto;html=1;exitX=0.75;exitY=0;exitDx=0;exitDy=0;fontSize=12;startSize=8;endSize=8;" edge="1" parent="_2PXvgAP1VzAHofBElRw-3">
          <mxGeometry relative="1" as="geometry">
            <mxPoint x="100" y="80" as="sourcePoint" />
            <mxPoint x="100" y="80" as="targetPoint" />
          </mxGeometry>
        </mxCell>
        <mxCell id="_2PXvgAP1VzAHofBElRw-8" value="Receive&lt;br&gt;Order" style="ellipse;whiteSpace=wrap;html=1;aspect=fixed;" vertex="1" parent="_2PXvgAP1VzAHofBElRw-3">
          <mxGeometry x="280" y="190" width="60" height="60" as="geometry" />
        </mxCell>
        <mxCell id="2SxeuDQXv64PsFOTSqyA-0" value="Hitung Product to Order (Konversi dari Monthly Forecast)" style="rounded=0;whiteSpace=wrap;html=1;" vertex="1" parent="_2PXvgAP1VzAHofBElRw-3">
          <mxGeometry x="40" y="90" width="120" height="60" as="geometry" />
        </mxCell>
        <mxCell id="2SxeuDQXv64PsFOTSqyA-1" value="" style="rhombus;whiteSpace=wrap;html=1;" vertex="1" parent="_2PXvgAP1VzAHofBElRw-3">
          <mxGeometry x="400" y="270" width="80" height="80" as="geometry" />
        </mxCell>
      </root>
    </mxGraphModel>
  </diagram>
</mxfile>
